<svg xmlns="http://www.w3.org/2000/svg" viewBox="0 0 960 540" role="img" aria-labelledby="title desc">
  <title id="title">Sensor, Regler und Aktor</title>
  <desc id="desc">Didaktische Übersicht zu Sensor, Regler und Aktor: Energiefluss, Messpunkt, Entscheidung und Kontrolle.</desc>
  <defs>
    <linearGradient id="g" x1="0" x2="1" y1="0" y2="1">
      <stop offset="0%" stop-color="hsl(77, 65%, 92%)"/>
      <stop offset="100%" stop-color="hsl(122, 70%, 82%)"/>
    </linearGradient>
  </defs>
  <rect width="960" height="540" rx="32" fill="url(#g)"/>
  <rect x="70" y="70" width="820" height="400" rx="28" fill="#ffffff" opacity="0.88"/>
  <text x="100" y="126" font-family="Arial, sans-serif" font-size="30" font-weight="700" fill="#1f2937">Sensor, Regler und Aktor</text>
  <text x="100" y="164" font-family="Arial, sans-serif" font-size="18" fill="#4b5563">Steuerung und Regelung</text>
  <g fill="none" stroke="#334155" stroke-width="6" stroke-linecap="round" stroke-linejoin="round">
    <rect x="120" y="230" width="150" height="95" rx="18"/>
    <rect x="405" y="230" width="150" height="95" rx="18"/>
    <rect x="690" y="230" width="150" height="95" rx="18"/>
    <path d="M270 278h120"/>
    <path d="M555 278h120"/>
    <path d="m374 258 18 20-18 20"/>
    <path d="m659 258 18 20-18 20"/>
    <path d="M195 325v54h570v-54"/>
  </g>
  <g font-family="Arial, sans-serif" font-size="20" font-weight="700" fill="#111827" text-anchor="middle">
    <text x="195" y="286">Eingang</text>
    <text x="480" y="286">Prüfen</text>
    <text x="765" y="286">Ausgang</text>
  </g>
  <g font-family="Arial, sans-serif" font-size="17" fill="#475569" text-anchor="middle">
    <text x="195" y="410">Nennwert / Signal</text>
    <text x="480" y="410">Messpunkt / Regel</text>
    <text x="765" y="410">Kontrolle / Grenze</text>
  </g>
  <circle cx="480" cy="278" r="18" fill="#e0f2fe" stroke="#334155" stroke-width="5"/>
  <path d="M470 278h20M480 268v20" stroke="#334155" stroke-width="5" stroke-linecap="round"/>
</svg>
