<svg xmlns="http://www.w3.org/2000/svg" role="img" aria-labelledby="title desc" viewBox="0 0 960 540">
<title id="title">Funktion als Zuordnung</title><desc id="desc">Schematische Übersicht für eine Schlaufuchs-Überblicksseite.</desc><style>
      .bg{fill:#f8fafc}.card{fill:#ffffff;stroke:#334155;stroke-width:2}.soft{fill:#e2e8f0;stroke:#475569;stroke-width:1.5}.line{stroke:#334155;stroke-width:2.4;fill:none;stroke-linecap:round;stroke-linejoin:round}.muted{stroke:#64748b;stroke-width:1.6;fill:none}.txt{font-family:Arial,Helvetica,sans-serif;font-size:18px;fill:#0f172a;font-weight:700}.small{font-family:Arial,Helvetica,sans-serif;font-size:14px;fill:#334155}.label{font-family:Arial,Helvetica,sans-serif;font-size:15px;fill:#0f172a;font-weight:600}.accent{fill:#dbeafe;stroke:#1d4ed8;stroke-width:2}.warn{fill:#fef3c7;stroke:#b45309;stroke-width:2}.ok{fill:#dcfce7;stroke:#15803d;stroke-width:2}
    </style><rect class="bg" x="0" y="0" width="960" height="540" rx="24"/><text class="txt" x="48" y="58">Funktion als Zuordnung</text><rect class="accent" x="140" y="170" width="170" height="220" rx="18"/><text class="label" text-anchor="middle" x="225" y="150">Eingabe</text><rect class="ok" x="650" y="170" width="170" height="220" rx="18"/><text class="label" text-anchor="middle" x="735" y="150">Ausgabe</text><path class="line" d="M310 220 C430 170 530 170 650 220"/><path class="line" d="M310 280 C430 280 530 280 650 280"/><path class="line" d="M310 340 C430 390 530 390 650 340"/><circle cx="225" cy="220" r="8"/><circle cx="225" cy="280" r="8"/><circle cx="225" cy="340" r="8"/><circle cx="735" cy="220" r="8"/><circle cx="735" cy="280" r="8"/><circle cx="735" cy="340" r="8"/><text class="small" x="390" y="420">Jede erlaubte Eingabe hat genau eine Ausgabe.</text></svg>
