<svg xmlns="http://www.w3.org/2000/svg" role="img" aria-labelledby="title desc" viewBox="0 0 960 540">
<title id="title">Signalpfad und Blockschaltbild</title><desc id="desc">Schematische Übersicht für eine Schlaufuchs-Überblicksseite.</desc><style>
      .bg{fill:#f8fafc}.card{fill:#ffffff;stroke:#334155;stroke-width:2}.soft{fill:#e2e8f0;stroke:#475569;stroke-width:1.5}.line{stroke:#334155;stroke-width:2.4;fill:none;stroke-linecap:round;stroke-linejoin:round}.muted{stroke:#64748b;stroke-width:1.6;fill:none}.txt{font-family:Arial,Helvetica,sans-serif;font-size:18px;fill:#0f172a;font-weight:700}.small{font-family:Arial,Helvetica,sans-serif;font-size:14px;fill:#334155}.label{font-family:Arial,Helvetica,sans-serif;font-size:15px;fill:#0f172a;font-weight:600}.accent{fill:#dbeafe;stroke:#1d4ed8;stroke-width:2}.warn{fill:#fef3c7;stroke:#b45309;stroke-width:2}.ok{fill:#dcfce7;stroke:#15803d;stroke-width:2}
    </style><rect class="bg" x="0" y="0" width="960" height="540" rx="24"/><text class="txt" x="48" y="58">Signalpfad und Blockschaltbild</text><rect class="card" x="15.0" y="210" width="130" height="78" rx="16"/><text class="label" text-anchor="middle" x="80.0" y="255">Quelle</text><path class="line" d="M150.0 249 H258.3"/><path class="line" d="m247.3 239 12 10-12 10"/><rect class="card" x="268.3" y="210" width="130" height="78" rx="16"/><text class="label" text-anchor="middle" x="333.3" y="255">Aufbereitung</text><path class="line" d="M403.3 249 H511.7"/><path class="line" d="m500.7 239 12 10-12 10"/><rect class="card" x="521.7" y="210" width="130" height="78" rx="16"/><text class="label" text-anchor="middle" x="586.7" y="255">Verarbeitung</text><path class="line" d="M656.7 249 H765.0"/><path class="line" d="m754.0 239 12 10-12 10"/><rect class="card" x="775.0" y="210" width="130" height="78" rx="16"/><text class="label" text-anchor="middle" x="840.0" y="255">Ausgabe</text><text class="small" x="48" y="470">Leserichtung: von links nach rechts. Jeder Block steht für eine Funktion, nicht zwingend für ein einzelnes Bauteil oder eine Datei.</text></svg>
