<svg xmlns="http://www.w3.org/2000/svg" viewBox="0 0 960 540" role="img" aria-labelledby="title desc">
  <title id="title">Entprellen und Flanken erkennen</title>
  <desc id="desc">Didaktische Skizze mit Quelle, Übertragung, Prüfung und Entscheidung.</desc>
  <rect width="960" height="540" rx="32" fill="#eefaf5"/>
  <rect x="72" y="76" width="816" height="388" rx="28" fill="#ffffff" stroke="#1f2937" stroke-width="4"/>
  <text x="96" y="128" font-family="Arial, sans-serif" font-size="34" font-weight="700" fill="#111827">Entprellen und Flanken erkennen</text>
  <g font-family="Arial, sans-serif" font-size="22" fill="#111827" stroke="#374151" stroke-width="3">
    <rect x="106" y="198" width="150" height="92" rx="18" fill="#e0f2fe"/>
    <text x="135" y="252" stroke="none">Quelle</text>
    <rect x="306" y="198" width="150" height="92" rx="18" fill="#dcfce7"/>
    <text x="333" y="252" stroke="none">Datenform</text>
    <rect x="506" y="198" width="150" height="92" rx="18" fill="#fef3c7"/>
    <text x="538" y="252" stroke="none">Prüfung</text>
    <rect x="706" y="198" width="150" height="92" rx="18" fill="#fae8ff"/>
    <text x="728" y="252" stroke="none">Entscheidung</text>
    <path d="M256 244h50" fill="none"/>
    <path d="M456 244h50" fill="none"/>
    <path d="M656 244h50" fill="none"/>
  </g>
  <g fill="#111827" font-family="Arial, sans-serif" font-size="20">
    <text x="118" y="350">Einheit</text>
    <text x="254" y="350">Zeit</text>
    <text x="368" y="350">Grenze</text>
    <text x="510" y="350">Fehlerbild</text>
    <text x="684" y="350">Folge</text>
  </g>
  <path d="M112 374h736" stroke="#9ca3af" stroke-width="3" stroke-dasharray="10 12"/>
  <text x="112" y="420" font-family="Arial, sans-serif" font-size="22" fill="#374151">Prüfe Daten nicht isoliert, sondern entlang ihres Weges.</text>
</svg>
