<svg xmlns="http://www.w3.org/2000/svg" viewBox="0 0 960 330" role="img" aria-labelledby="title desc">
<title id="title">Sprungziel und Sticky Header</title>
<desc id="desc">Schematische Lernillustration zu Sprungziel und Sticky Header.</desc>
<defs>
<linearGradient id="bg" x1="0" x2="1" y1="0" y2="1"><stop offset="0" stop-color="#eef2ff"/><stop offset="1" stop-color="#f8fafc"/></linearGradient>
<filter id="shadow" x="-20%" y="-20%" width="140%" height="140%"><feDropShadow dx="0" dy="10" stdDeviation="12" flood-color="#0f172a" flood-opacity="0.13"/></filter>
</defs>
<rect width="960" height="330" rx="32" fill="url(#bg)"/>
<rect x="26" y="26" width="908" height="278" rx="26" fill="#ffffff" stroke="#cbd5e1" filter="url(#shadow)"/>
<text x="58" y="72" font-family="Arial, sans-serif" font-size="25" font-weight="800" fill="#0f172a">Sprungziel und Sticky Header</text>
<rect x="58.0" y="108" width="267.3" height="150" rx="20" fill="#f8fafc" stroke="#bfdbfe"/>
<circle cx="88.0" cy="140" r="17" fill="#dbeafe" stroke="#2563eb" stroke-opacity="0.5"/>
<text x="88.0" y="146" text-anchor="middle" font-family="Arial, sans-serif" font-size="16" font-weight="800" fill="#2563eb">1</text>
<text x="116.0" y="146" font-family="Arial, sans-serif" font-size="17" font-weight="800" fill="#0f172a">Anker</text>
<text x="82.0" y="180" font-family="Arial, sans-serif" font-size="15" fill="#334155">Ziel wird angesprungen</text>
<path d="M 333.3 184 h 12" stroke="#94a3b8" stroke-width="3" stroke-linecap="round"/>
<path d="m 345.3 184 -7 -6 m 7 6 -7 6" stroke="#94a3b8" stroke-width="3" fill="none" stroke-linecap="round" stroke-linejoin="round"/>
<rect x="349.3" y="108" width="267.3" height="150" rx="20" fill="#f8fafc" stroke="#bfdbfe"/>
<circle cx="379.3" cy="140" r="17" fill="#dbeafe" stroke="#2563eb" stroke-opacity="0.5"/>
<text x="379.3" y="146" text-anchor="middle" font-family="Arial, sans-serif" font-size="16" font-weight="800" fill="#2563eb">2</text>
<text x="407.3" y="146" font-family="Arial, sans-serif" font-size="17" font-weight="800" fill="#0f172a">Header</text>
<text x="373.3" y="180" font-family="Arial, sans-serif" font-size="15" fill="#334155">überdeckt sonst Inhalt</text>
<path d="M 624.7 184 h 12" stroke="#94a3b8" stroke-width="3" stroke-linecap="round"/>
<path d="m 636.7 184 -7 -6 m 7 6 -7 6" stroke="#94a3b8" stroke-width="3" fill="none" stroke-linecap="round" stroke-linejoin="round"/>
<rect x="640.7" y="108" width="267.3" height="150" rx="20" fill="#f8fafc" stroke="#bfdbfe"/>
<circle cx="670.7" cy="140" r="17" fill="#dbeafe" stroke="#2563eb" stroke-opacity="0.5"/>
<text x="670.7" y="146" text-anchor="middle" font-family="Arial, sans-serif" font-size="16" font-weight="800" fill="#2563eb">3</text>
<text x="698.7" y="146" font-family="Arial, sans-serif" font-size="17" font-weight="800" fill="#0f172a">Abstand</text>
<text x="664.7" y="180" font-family="Arial, sans-serif" font-size="15" fill="#334155">scroll-margin schafft Luft</text>
</svg>
