<svg xmlns="http://www.w3.org/2000/svg" viewBox="0 0 940 300" role="img" aria-labelledby="title desc">
  <title id="title">UART-Debugging</title>
  <desc id="desc">Lernillustration mit Prüfschritten zu UART-Debugging.</desc>
  <rect width="940" height="300" rx="34" fill="#fff7ed"/>
  <circle cx="86" cy="68" r="42" fill="#ffedd5"/>
  <circle cx="846" cy="236" r="50" fill="#ffedd5" opacity="0.75"/>
  <text x="48" y="64" font-size="27" font-weight="900" fill="#0f172a">UART-Debugging</text>
  <text x="48" y="94" font-size="16" fill="#475569">kleines Unterthema · klare Entscheidung · prüfbare Gegenprobe</text>
  <rect x="44" y="126" width="162" height="86" rx="18" fill="#ffffff" stroke="#ffedd5" stroke-width="3"/><text x="125" y="160" text-anchor="middle" font-size="15" font-weight="800" fill="#0f172a">TX/RX prüfen</text><text x="125" y="188" text-anchor="middle" font-size="12" fill="#475569">Prüfschritt 1</text><path d="M214 169h32" stroke="#ea580c" stroke-width="4" stroke-linecap="round"/><path d="m242 158 13 11-13 11" fill="none" stroke="#ea580c" stroke-width="4" stroke-linecap="round" stroke-linejoin="round"/><rect x="222" y="126" width="162" height="86" rx="18" fill="#ffffff" stroke="#ffedd5" stroke-width="3"/><text x="303" y="160" text-anchor="middle" font-size="15" font-weight="800" fill="#0f172a">GND verbinden</text><text x="303" y="188" text-anchor="middle" font-size="12" fill="#475569">Prüfschritt 2</text><path d="M392 169h32" stroke="#ea580c" stroke-width="4" stroke-linecap="round"/><path d="m420 158 13 11-13 11" fill="none" stroke="#ea580c" stroke-width="4" stroke-linecap="round" stroke-linejoin="round"/><rect x="400" y="126" width="162" height="86" rx="18" fill="#ffffff" stroke="#ffedd5" stroke-width="3"/><text x="481" y="160" text-anchor="middle" font-size="15" font-weight="800" fill="#0f172a">Baudrate vergleichen</text><text x="481" y="188" text-anchor="middle" font-size="12" fill="#475569">Prüfschritt 3</text><path d="M570 169h32" stroke="#ea580c" stroke-width="4" stroke-linecap="round"/><path d="m598 158 13 11-13 11" fill="none" stroke="#ea580c" stroke-width="4" stroke-linecap="round" stroke-linejoin="round"/><rect x="578" y="126" width="162" height="86" rx="18" fill="#ffffff" stroke="#ffedd5" stroke-width="3"/><text x="659" y="160" text-anchor="middle" font-size="15" font-weight="800" fill="#0f172a">Pegel beachten</text><text x="659" y="188" text-anchor="middle" font-size="12" fill="#475569">Prüfschritt 4</text>
</svg>