<svg xmlns="http://www.w3.org/2000/svg" viewBox="0 0 960 320" role="img" aria-labelledby="title desc">
  <title id="title">PWM-Größen</title>
  <desc id="desc">Strukturierte Lernillustration mit Fachbereich, Unterthema und Gegenprobe.</desc>
  <rect width="960" height="320" rx="36" fill="#fff7ed"/>
  <circle cx="96" cy="76" r="48" fill="#fed7aa" opacity=".95"/>
  <circle cx="870" cy="254" r="58" fill="#fed7aa" opacity=".75"/>
  <path d="M80 210 C180 125, 260 248, 370 160 S570 122, 690 195 S820 226, 890 142" fill="none" stroke="#ea580c" stroke-width="8" stroke-linecap="round" opacity=".22"/>
  <text x="58" y="70" font-size="27" font-weight="900" fill="#111827">PWM-Größen</text>
  <text x="58" y="102" font-size="16" fill="#475569">Fachbereich · Unterthema · Prüfschritt · Gegenprobe</text>
  <g transform="translate(62 145)">
    <rect width="178" height="94" rx="22" fill="white" opacity=".9" stroke="#ea580c" stroke-opacity=".28"/>
    <text x="89" y="38" text-anchor="middle" font-size="15" font-weight="800" fill="#111827">Einordnen</text>
    <text x="89" y="64" text-anchor="middle" font-size="12" fill="#475569">Was ist gemeint?</text>
  </g>
  <g transform="translate(282 145)">
    <rect width="178" height="94" rx="22" fill="white" opacity=".9" stroke="#ea580c" stroke-opacity=".28"/>
    <text x="89" y="38" text-anchor="middle" font-size="15" font-weight="800" fill="#111827">Abgrenzen</text>
    <text x="89" y="64" text-anchor="middle" font-size="12" fill="#475569">Was nicht?</text>
  </g>
  <g transform="translate(502 145)">
    <rect width="178" height="94" rx="22" fill="white" opacity=".9" stroke="#ea580c" stroke-opacity=".28"/>
    <text x="89" y="38" text-anchor="middle" font-size="15" font-weight="800" fill="#111827">Prüfen</text>
    <text x="89" y="64" text-anchor="middle" font-size="12" fill="#475569">Welcher Schritt?</text>
  </g>
  <g transform="translate(722 145)">
    <rect width="178" height="94" rx="22" fill="white" opacity=".9" stroke="#ea580c" stroke-opacity=".28"/>
    <text x="89" y="38" text-anchor="middle" font-size="15" font-weight="800" fill="#111827">Gegenprobe</text>
    <text x="89" y="64" text-anchor="middle" font-size="12" fill="#475569">Bleibt es stabil?</text>
  </g>
  <text x="58" y="286" font-size="13" fill="#64748b">pwm-frequenz-und-tastverhaeltnis</text>
</svg>