<svg xmlns="http://www.w3.org/2000/svg" viewBox="0 0 1000 380" role="img" aria-labelledby="title desc">
<title id="title">Fehler als Zustand planen</title>
<desc id="desc">Schematische Lernillustration zu Fehler als Zustand planen.</desc>
<defs>
<linearGradient id="bg" x1="0" x2="1" y1="0" y2="1"><stop offset="0" stop-color="#ecfeff"/><stop offset="1" stop-color="#f8fafc"/></linearGradient>
<filter id="shadow" x="-20%" y="-20%" width="140%" height="140%"><feDropShadow dx="0" dy="12" stdDeviation="14" flood-color="#0f172a" flood-opacity="0.16"/></filter>
</defs>
<rect width="1000" height="380" rx="36" fill="url(#bg)"/>
<rect x="30" y="30" width="940" height="320" rx="30" fill="#ffffff" stroke="#bfdbfe" filter="url(#shadow)"/>
<text x="68" y="82" font-family="Arial, sans-serif" font-size="28" font-weight="800" fill="#0f172a">Fehler als Zustand planen</text>
<rect x="66.0" y="125" width="273.3" height="170" rx="24" fill="#f8fafc" stroke="#bae6fd"/>
<circle cx="99.0" cy="161" r="19" fill="#dbeafe" stroke="#2563eb" stroke-width="2"/>
<text x="99.0" y="168" text-anchor="middle" font-family="Arial, sans-serif" font-size="16" font-weight="800" fill="#2563eb">1</text>
<text x="130.0" y="166" font-family="Arial, sans-serif" font-size="17" font-weight="800" fill="#111827">Versuch</text>
<text x="90.0" y="203" font-family="Arial, sans-serif" font-size="15" fill="#334155">Aktion startet kontrolliert</text>
<path d="M 346.3 210 h 14" stroke="#60a5fa" stroke-width="3" stroke-linecap="round"/>
<path d="m 360.3 210 -7 -6 m 7 6 -7 6" stroke="#60a5fa" stroke-width="3" fill="none" stroke-linecap="round" stroke-linejoin="round"/>
<rect x="363.3" y="125" width="273.3" height="170" rx="24" fill="#f8fafc" stroke="#bae6fd"/>
<circle cx="396.3" cy="161" r="19" fill="#dbeafe" stroke="#2563eb" stroke-width="2"/>
<text x="396.3" y="168" text-anchor="middle" font-family="Arial, sans-serif" font-size="16" font-weight="800" fill="#2563eb">2</text>
<text x="427.3" y="166" font-family="Arial, sans-serif" font-size="17" font-weight="800" fill="#111827">Fehler</text>
<text x="387.3" y="203" font-family="Arial, sans-serif" font-size="15" fill="#334155">Problem wird abgefangen</text>
<path d="M 643.7 210 h 14" stroke="#60a5fa" stroke-width="3" stroke-linecap="round"/>
<path d="m 657.7 210 -7 -6 m 7 6 -7 6" stroke="#60a5fa" stroke-width="3" fill="none" stroke-linecap="round" stroke-linejoin="round"/>
<rect x="660.7" y="125" width="273.3" height="170" rx="24" fill="#f8fafc" stroke="#bae6fd"/>
<circle cx="693.7" cy="161" r="19" fill="#dbeafe" stroke="#2563eb" stroke-width="2"/>
<text x="693.7" y="168" text-anchor="middle" font-family="Arial, sans-serif" font-size="16" font-weight="800" fill="#2563eb">3</text>
<text x="724.7" y="166" font-family="Arial, sans-serif" font-size="17" font-weight="800" fill="#111827">Rückweg</text>
<text x="684.7" y="203" font-family="Arial, sans-serif" font-size="15" fill="#334155">Nutzer bekommt nächsten Schritt</text>
</svg>
