<svg xmlns="http://www.w3.org/2000/svg" viewBox="0 0 980 350" role="img" aria-labelledby="title desc">
<title id="title">Daten laden ohne Blockieren</title>
<desc id="desc">Schematische Lernillustration zu Daten laden ohne Blockieren.</desc>
<defs>
<linearGradient id="bg" x1="0" x2="1" y1="0" y2="1"><stop offset="0" stop-color="#f5f3ff"/><stop offset="1" stop-color="#eff6ff"/></linearGradient>
<filter id="shadow" x="-20%" y="-20%" width="140%" height="140%"><feDropShadow dx="0" dy="10" stdDeviation="12" flood-color="#111827" flood-opacity="0.15"/></filter>
</defs>
<rect width="980" height="350" rx="34" fill="url(#bg)"/>
<rect x="28" y="28" width="924" height="294" rx="28" fill="#ffffff" stroke="#d8b4fe" filter="url(#shadow)"/>
<text x="64" y="78" font-family="Arial, sans-serif" font-size="26" font-weight="800" fill="#111827">Daten laden ohne Blockieren</text>
<rect x="64.0" y="116" width="269.3" height="158" rx="22" fill="#fafafa" stroke="#c4b5fd"/>
<circle cx="96.0" cy="150" r="18" fill="#ede9fe" stroke="#7c3aed" stroke-width="2"/>
<text x="96.0" y="156" text-anchor="middle" font-family="Arial, sans-serif" font-size="16" font-weight="800" fill="#7c3aed">1</text>
<text x="126.0" y="156" font-family="Arial, sans-serif" font-size="17" font-weight="800" fill="#111827">Anfrage</text>
<text x="88.0" y="192" font-family="Arial, sans-serif" font-size="15" fill="#374151">fetch startet Netzwerkzugriff</text>
<path d="M 341.3 196 h 14" stroke="#a78bfa" stroke-width="3" stroke-linecap="round"/>
<path d="m 355.3 196 -7 -6 m 7 6 -7 6" stroke="#a78bfa" stroke-width="3" fill="none" stroke-linecap="round" stroke-linejoin="round"/>
<rect x="359.3" y="116" width="269.3" height="158" rx="22" fill="#fafafa" stroke="#c4b5fd"/>
<circle cx="391.3" cy="150" r="18" fill="#ede9fe" stroke="#7c3aed" stroke-width="2"/>
<text x="391.3" y="156" text-anchor="middle" font-family="Arial, sans-serif" font-size="16" font-weight="800" fill="#7c3aed">2</text>
<text x="421.3" y="156" font-family="Arial, sans-serif" font-size="17" font-weight="800" fill="#111827">Warten</text>
<text x="383.3" y="192" font-family="Arial, sans-serif" font-size="15" fill="#374151">await pausiert Funktion</text>
<path d="M 636.7 196 h 14" stroke="#a78bfa" stroke-width="3" stroke-linecap="round"/>
<path d="m 650.7 196 -7 -6 m 7 6 -7 6" stroke="#a78bfa" stroke-width="3" fill="none" stroke-linecap="round" stroke-linejoin="round"/>
<rect x="654.7" y="116" width="269.3" height="158" rx="22" fill="#fafafa" stroke="#c4b5fd"/>
<circle cx="686.7" cy="150" r="18" fill="#ede9fe" stroke="#7c3aed" stroke-width="2"/>
<text x="686.7" y="156" text-anchor="middle" font-family="Arial, sans-serif" font-size="16" font-weight="800" fill="#7c3aed">3</text>
<text x="716.7" y="156" font-family="Arial, sans-serif" font-size="17" font-weight="800" fill="#111827">Darstellen</text>
<text x="678.7" y="192" font-family="Arial, sans-serif" font-size="15" fill="#374151">UI zeigt Ergebnis oder Fehler</text>
</svg>
