<svg xmlns="http://www.w3.org/2000/svg" viewBox="0 0 940 300" role="img" aria-labelledby="title desc"><title id="title">Steigung in Darstellungen</title><desc id="desc">Lernillustration mit vier Prüfschritten.</desc><rect width="940" height="300" rx="34" fill="#ecfdf5"/><circle cx="84" cy="68" r="42" fill="#bbf7d0" opacity=".75"/><circle cx="852" cy="238" r="56" fill="#bbf7d0" opacity=".65"/><text x="48" y="64" font-size="27" font-weight="900" fill="#0f172a">Steigung in Darstellungen</text><text x="48" y="94" font-size="16" fill="#475569">feines Unterthema · klare Grenze · prüfbare Gegenprobe</text><rect x="56" y="126" width="176" height="88" rx="20" fill="#fff" stroke="#bbf7d0" stroke-width="3"/><text x="144" y="164" text-anchor="middle" font-size="16" font-weight="800" fill="#0f172a">Einordnen</text><text x="144" y="190" text-anchor="middle" font-size="12" fill="#475569">Steigung in Darstellungen</text><path d="M242 170h28" stroke="#15803d" stroke-width="4" stroke-linecap="round"/><path d="m264 160 12 10-12 10" fill="none" stroke="#15803d" stroke-width="4" stroke-linecap="round" stroke-linejoin="round"/><rect x="272" y="126" width="176" height="88" rx="20" fill="#fff" stroke="#bbf7d0" stroke-width="3"/><text x="360" y="164" text-anchor="middle" font-size="16" font-weight="800" fill="#0f172a">Trennen</text><text x="360" y="190" text-anchor="middle" font-size="12" fill="#475569">Steigung in Darstellungen</text><path d="M458 170h28" stroke="#15803d" stroke-width="4" stroke-linecap="round"/><path d="m480 160 12 10-12 10" fill="none" stroke="#15803d" stroke-width="4" stroke-linecap="round" stroke-linejoin="round"/><rect x="488" y="126" width="176" height="88" rx="20" fill="#fff" stroke="#bbf7d0" stroke-width="3"/><text x="576" y="164" text-anchor="middle" font-size="16" font-weight="800" fill="#0f172a">Prüfen</text><text x="576" y="190" text-anchor="middle" font-size="12" fill="#475569">Steigung in Darstellungen</text><path d="M674 170h28" stroke="#15803d" stroke-width="4" stroke-linecap="round"/><path d="m696 160 12 10-12 10" fill="none" stroke="#15803d" stroke-width="4" stroke-linecap="round" stroke-linejoin="round"/><rect x="704" y="126" width="176" height="88" rx="20" fill="#fff" stroke="#bbf7d0" stroke-width="3"/><text x="792" y="164" text-anchor="middle" font-size="16" font-weight="800" fill="#0f172a">Übertragen</text><text x="792" y="190" text-anchor="middle" font-size="12" fill="#475569">Steigung in Darstellungen</text></svg>