<svg xmlns="http://www.w3.org/2000/svg" viewBox="0 0 960 360" role="img" aria-labelledby="title desc">
  <title id="title">Wachstumsfaktor statt Zuwachs verwenden</title>
  <desc id="desc">Didaktische Illustration für Wachstumsfaktor statt Zuwachs verwenden.</desc>
  <defs>
    <linearGradient id="bg" x1="0" x2="1" y1="0" y2="1">
      <stop offset="0%" stop-color="#eef6ff"/>
      <stop offset="100%" stop-color="#f8f5ff"/>
    </linearGradient>
    <filter id="shadow" x="-20%" y="-20%" width="140%" height="140%">
      <feDropShadow dx="0" dy="12" stdDeviation="14" flood-color="#1e293b" flood-opacity="0.16"/>
    </filter>
  </defs>
  <rect width="960" height="360" rx="34" fill="url(#bg)"/>
  <circle cx="818" cy="72" r="68" fill="#dbeafe"/>
  <circle cx="118" cy="302" r="78" fill="#ede9fe"/>
  <g filter="url(#shadow)">
    <rect x="84" y="78" width="246" height="184" rx="24" fill="#ffffff" stroke="#cbd5e1"/>
    <rect x="357" y="104" width="246" height="184" rx="24" fill="#ffffff" stroke="#cbd5e1"/>
    <rect x="630" y="78" width="246" height="184" rx="24" fill="#ffffff" stroke="#cbd5e1"/>
  </g>
  <g fill="none" stroke="#64748b" stroke-width="10" stroke-linecap="round" stroke-linejoin="round">
    <path d="M198 155h72"/>
    <path d="M198 196h108"/>
    <path d="M471 168h86"/>
    <path d="M471 210h52"/>
    <path d="M744 151h78"/>
    <path d="M744 196h96"/>
  </g>
  <path d="M330 170h27" stroke="#334155" stroke-width="8" stroke-linecap="round"/>
  <path d="M604 170h26" stroke="#334155" stroke-width="8" stroke-linecap="round"/>
  <text x="90" y="42" font-family="Inter, Arial, sans-serif" font-size="22" font-weight="800" fill="#475569">Exponentielles Wachstum erkennen · v116</text>
  <text x="90" y="321" font-family="Inter, Arial, sans-serif" font-size="30" font-weight="900" fill="#0f172a">Wachstumsfaktor statt Zuwachs verwenden</text>
</svg>
