<svg xmlns="http://www.w3.org/2000/svg" viewBox="0 0 980 520"><rect width="980" height="520" rx="36" fill="#f8fafc"/><rect x="54" y="70" width="230" height="340" rx="26" fill="#e0f2fe" stroke="#0284c7" stroke-width="4"/><text x="169" y="135" text-anchor="middle" font-family="Arial" font-size="30" font-weight="700">ATmega</text><line x1="284" y1="245" x2="430" y2="245" stroke="#2563eb" stroke-width="8"/><polygon points="430,245 405,232 405,258" fill="#2563eb"/><rect x="460" y="196" width="130" height="98" rx="16" fill="#dbeafe" stroke="#2563eb" stroke-width="4"/><text x="525" y="252" text-anchor="middle" font-family="Arial" font-size="26" font-weight="700">MOSFET</text><rect x="668" y="104" width="180" height="82" rx="18" fill="#fee2e2" stroke="#dc2626" stroke-width="4"/><text x="758" y="155" text-anchor="middle" font-family="Arial" font-size="28" font-weight="700">Last</text><line x1="758" y1="70" x2="758" y2="104" stroke="#ef4444" stroke-width="8"/><text x="758" y="52" text-anchor="middle" font-family="Arial" font-size="22" font-weight="700">+V Last</text><line x1="758" y1="186" x2="758" y2="245" stroke="#ef4444" stroke-width="8"/><line x1="758" y1="245" x2="590" y2="245" stroke="#ef4444" stroke-width="8"/><line x1="525" y1="294" x2="525" y2="390" stroke="#334155" stroke-width="8"/><line x1="455" y1="390" x2="850" y2="390" stroke="#334155" stroke-width="8"/><text x="652" y="430" text-anchor="middle" font-family="Arial" font-size="22" font-weight="700">gemeinsame Masse</text><path d="M858 186 C910 215 910 95 858 124" fill="none" stroke="#16a34a" stroke-width="8"/><text x="864" y="98" text-anchor="middle" font-family="Arial" font-size="20" font-weight="700">Freilaufdiode</text></svg>
