<svg xmlns="http://www.w3.org/2000/svg" viewBox="0 0 720 260" role="img" aria-labelledby="title desc">
<title id="title">Flüssige Typografie</title>
<desc id="desc">Eine ruhige Illustration mit mehreren Schritten zur Orientierung auf der Lernseite.</desc>
<rect width="720" height="260" rx="30" fill="#f8fafc"/>
<path d="M30 214 C160 186 245 238 380 202 C510 168 573 198 690 172" fill="none" stroke="#e2e8f0" stroke-width="18" stroke-linecap="round"/>
<text x="360" y="44" text-anchor="middle" font-family="Inter, Arial, sans-serif" font-size="25" font-weight="900" fill="#0f172a">Flüssige Typografie</text>
<path d="M239.3 134 H251.3" fill="none" stroke="#64748b" stroke-width="4" stroke-linecap="round"/>
<path d="M241.3 124 L251.3 134 L241.3 144" fill="none" stroke="#64748b" stroke-width="4" stroke-linecap="round" stroke-linejoin="round"/><path d="M464.7 134 H476.7" fill="none" stroke="#64748b" stroke-width="4" stroke-linecap="round"/>
<path d="M466.7 124 L476.7 134 L466.7 144" fill="none" stroke="#64748b" stroke-width="4" stroke-linecap="round" stroke-linejoin="round"/>
<rect x="34.0" y="86" width="201.3" height="96" rx="22" fill="#dbeafe" stroke="#2563eb" stroke-width="3"/>
<text x="134.7" y="126" text-anchor="middle" font-family="Inter, Arial, sans-serif" font-size="17" font-weight="800" fill="#0f172a">Minimum</text>
<circle cx="134.7" cy="156" r="10" fill="#2563eb" opacity="0.85"/><rect x="259.3" y="86" width="201.3" height="96" rx="22" fill="#dcfce7" stroke="#16a34a" stroke-width="3"/>
<text x="360.0" y="126" text-anchor="middle" font-family="Inter, Arial, sans-serif" font-size="17" font-weight="800" fill="#0f172a">flüssig</text>
<circle cx="360.0" cy="156" r="10" fill="#16a34a" opacity="0.85"/><rect x="484.7" y="86" width="201.3" height="96" rx="22" fill="#fef3c7" stroke="#d97706" stroke-width="3"/>
<text x="585.3" y="126" text-anchor="middle" font-family="Inter, Arial, sans-serif" font-size="17" font-weight="800" fill="#0f172a">Maximum</text>
<circle cx="585.3" cy="156" r="10" fill="#d97706" opacity="0.85"/>
</svg>
