<svg xmlns="http://www.w3.org/2000/svg" viewBox="0 0 720 260" role="img" aria-labelledby="title desc">
<title id="title">Semantik-Karte</title>
<desc id="desc">Eine ruhige Illustration mit mehreren Schritten zur Orientierung auf der Lernseite.</desc>
<rect width="720" height="260" rx="30" fill="#f8fafc"/>
<path d="M30 214 C160 186 245 238 380 202 C510 168 573 198 690 172" fill="none" stroke="#e2e8f0" stroke-width="18" stroke-linecap="round"/>
<text x="360" y="44" text-anchor="middle" font-family="Inter, Arial, sans-serif" font-size="25" font-weight="900" fill="#0f172a">Semantik-Karte</text>
<path d="M183.0 134 H195.0" fill="none" stroke="#64748b" stroke-width="4" stroke-linecap="round"/>
<path d="M185.0 124 L195.0 134 L185.0 144" fill="none" stroke="#64748b" stroke-width="4" stroke-linecap="round" stroke-linejoin="round"/><path d="M352.0 134 H364.0" fill="none" stroke="#64748b" stroke-width="4" stroke-linecap="round"/>
<path d="M354.0 124 L364.0 134 L354.0 144" fill="none" stroke="#64748b" stroke-width="4" stroke-linecap="round" stroke-linejoin="round"/><path d="M521.0 134 H533.0" fill="none" stroke="#64748b" stroke-width="4" stroke-linecap="round"/>
<path d="M523.0 124 L533.0 134 L523.0 144" fill="none" stroke="#64748b" stroke-width="4" stroke-linecap="round" stroke-linejoin="round"/>
<rect x="34.0" y="86" width="145.0" height="96" rx="22" fill="#dbeafe" stroke="#2563eb" stroke-width="3"/>
<text x="106.5" y="126" text-anchor="middle" font-family="Inter, Arial, sans-serif" font-size="17" font-weight="800" fill="#0f172a">Header</text>
<circle cx="106.5" cy="156" r="10" fill="#2563eb" opacity="0.85"/><rect x="203.0" y="86" width="145.0" height="96" rx="22" fill="#dcfce7" stroke="#16a34a" stroke-width="3"/>
<text x="275.5" y="126" text-anchor="middle" font-family="Inter, Arial, sans-serif" font-size="17" font-weight="800" fill="#0f172a">Main</text>
<circle cx="275.5" cy="156" r="10" fill="#16a34a" opacity="0.85"/><rect x="372.0" y="86" width="145.0" height="96" rx="22" fill="#fef3c7" stroke="#d97706" stroke-width="3"/>
<text x="444.5" y="126" text-anchor="middle" font-family="Inter, Arial, sans-serif" font-size="17" font-weight="800" fill="#0f172a">Aside</text>
<circle cx="444.5" cy="156" r="10" fill="#d97706" opacity="0.85"/><rect x="541.0" y="86" width="145.0" height="96" rx="22" fill="#fae8ff" stroke="#a21caf" stroke-width="3"/>
<text x="613.5" y="126" text-anchor="middle" font-family="Inter, Arial, sans-serif" font-size="17" font-weight="800" fill="#0f172a">Footer</text>
<circle cx="613.5" cy="156" r="10" fill="#a21caf" opacity="0.85"/>
</svg>
