<svg xmlns="http://www.w3.org/2000/svg" viewBox="0 0 920 300" role="img" aria-labelledby="title desc">
  <title id="title">Monitoring-Schleife</title>
  <desc id="desc">Schematische Lernillustration zu Monitoring-Schleife.</desc>
  <rect width="920" height="300" rx="34" fill="#eff6ff"/>
  <circle cx="84" cy="64" r="42" fill="#dbeafe"/>
  <circle cx="838" cy="236" r="48" fill="#e0f2fe"/>
  <text x="50" y="66" font-size="28" font-weight="800" fill="#0f172a">Monitoring-Schleife</text>
  <text x="50" y="94" font-size="16" fill="#475569">Vom Bauchgefühl zur prüfbaren Web-Projektpraxis</text>
  <rect x="50" y="126" width="170" height="86" rx="18" fill="#ffffff" stroke="#bfdbfe" stroke-width="3"/><text x="135" y="164" text-anchor="middle" font-size="16" font-weight="700" fill="#0f172a">Fehler sehen</text><text x="135" y="190" text-anchor="middle" font-size="13" fill="#475569">Schritt 1</text><path d="M228 169h44" stroke="#2563eb" stroke-width="4" stroke-linecap="round"/><path d="m268 158 14 11-14 11" fill="none" stroke="#2563eb" stroke-width="4" stroke-linecap="round" stroke-linejoin="round"/><rect x="265" y="126" width="170" height="86" rx="18" fill="#ffffff" stroke="#bfdbfe" stroke-width="3"/><text x="350" y="164" text-anchor="middle" font-size="16" font-weight="700" fill="#0f172a">Auswirkung prüfen</text><text x="350" y="190" text-anchor="middle" font-size="13" fill="#475569">Schritt 2</text><path d="M443 169h44" stroke="#2563eb" stroke-width="4" stroke-linecap="round"/><path d="m483 158 14 11-14 11" fill="none" stroke="#2563eb" stroke-width="4" stroke-linecap="round" stroke-linejoin="round"/><rect x="480" y="126" width="170" height="86" rx="18" fill="#ffffff" stroke="#bfdbfe" stroke-width="3"/><text x="565" y="164" text-anchor="middle" font-size="16" font-weight="700" fill="#0f172a">Ursache finden</text><text x="565" y="190" text-anchor="middle" font-size="13" fill="#475569">Schritt 3</text><path d="M658 169h44" stroke="#2563eb" stroke-width="4" stroke-linecap="round"/><path d="m698 158 14 11-14 11" fill="none" stroke="#2563eb" stroke-width="4" stroke-linecap="round" stroke-linejoin="round"/><rect x="695" y="126" width="170" height="86" rx="18" fill="#ffffff" stroke="#bfdbfe" stroke-width="3"/><text x="780" y="164" text-anchor="middle" font-size="16" font-weight="700" fill="#0f172a">klein beheben</text><text x="780" y="190" text-anchor="middle" font-size="13" fill="#475569">Schritt 4</text>
</svg>