<svg xmlns="http://www.w3.org/2000/svg" viewBox="0 0 960 420" role="img" aria-labelledby="title desc">
  <title id="title">CSS-Refactoring</title>
  <desc id="desc">Schematische Lernillustration für eine Web-Development-Erklärung.</desc>
  <defs>
    <linearGradient id="bg" x1="0" x2="1" y1="0" y2="1">
      <stop offset="0" stop-color="#eef2ff"/>
      <stop offset="1" stop-color="#f8fafc"/>
    </linearGradient>
    <filter id="shadow" x="-20%" y="-20%" width="140%" height="140%">
      <feDropShadow dx="0" dy="14" stdDeviation="18" flood-color="#1e293b" flood-opacity="0.16"/>
    </filter>
  </defs>
  <rect width="960" height="420" rx="36" fill="url(#bg)"/>
  <circle cx="835" cy="75" r="58" fill="#ea580c" opacity="0.12"/>
  <circle cx="100" cy="335" r="80" fill="#14b8a6" opacity="0.10"/>
  <g filter="url(#shadow)">
    <rect x="74" y="108" width="220" height="180" rx="28" fill="#ffffff" stroke="#cbd5e1"/>
    <rect x="370" y="108" width="220" height="180" rx="28" fill="#ffffff" stroke="#cbd5e1"/>
    <rect x="666" y="108" width="220" height="180" rx="28" fill="#ffffff" stroke="#cbd5e1"/>
  </g>
  <g fill="none" stroke="#ea580c" stroke-width="10" stroke-linecap="round" stroke-linejoin="round">
    <path d="M306 198h45"/>
    <path d="m341 182 18 16-18 16"/>
    <path d="M602 198h45"/>
    <path d="m637 182 18 16-18 16"/>
  </g>
  <g font-family="Inter, system-ui, sans-serif" text-anchor="middle">
    <text x="480" y="58" font-size="30" font-weight="800" fill="#0f172a">CSS-Refactoring</text>
    <text x="184" y="168" font-size="21" font-weight="800" fill="#0f172a">Dopplung</text>
    <text x="480" y="168" font-size="21" font-weight="800" fill="#0f172a">Ordnung</text>
    <text x="776" y="168" font-size="21" font-weight="800" fill="#0f172a">Regel</text>
    <text x="184" y="219" font-size="16" fill="#475569">sehen</text>
    <text x="480" y="219" font-size="16" fill="#475569">prüfen</text>
    <text x="776" y="219" font-size="16" fill="#475569">verbessern</text>
  </g>
  <g fill="#ea580c" opacity="0.85">
    <rect x="130" y="242" width="108" height="12" rx="6"/>
    <rect x="426" y="242" width="108" height="12" rx="6"/>
    <rect x="722" y="242" width="108" height="12" rx="6"/>
  </g>
</svg>
