<svg xmlns="http://www.w3.org/2000/svg" viewBox="0 0 900 520" role="img" aria-labelledby="title desc">
  <title id="title">Automatisierung im Überblick</title>
  <desc id="desc">Didaktische Übersicht zu Automatisierung im Überblick</desc>
  <rect width="900" height="520" rx="34" fill="#f8fafc"/>
  <rect x="42" y="42" width="816" height="436" rx="28" fill="#ffffff" stroke="#cbd5e1" stroke-width="4"/>
  <text x="72" y="98" font-family="Arial, sans-serif" font-size="34" font-weight="700" fill="#0f172a">Automatisierung im Überblick</text>
  <text x="72" y="138" font-family="Arial, sans-serif" font-size="22" fill="#475569">Elektrotechnik Automation Diagnose</text>
  <g fill="none" stroke="#334155" stroke-width="5" stroke-linecap="round" stroke-linejoin="round">
    <rect x="90" y="205" width="170" height="95" rx="18"/>
    <rect x="365" y="205" width="170" height="95" rx="18"/>
    <rect x="640" y="205" width="170" height="95" rx="18"/>
    <path d="M265 252h88"/>
    <path d="m338 232 22 20-22 20"/>
    <path d="M540 252h88"/>
    <path d="m613 232 22 20-22 20"/>
    <path d="M175 330v48h550v-48"/>
  </g>
  <g font-family="Arial, sans-serif" font-size="20" fill="#0f172a" text-anchor="middle">
    <text x="175" y="260">Eingabe</text>
    <text x="450" y="260">Prüfung</text>
    <text x="725" y="260">Entscheidung</text>
  </g>
  <g fill="#e0f2fe" stroke="#0284c7" stroke-width="3">
    <circle cx="175" cy="405" r="24"/>
    <circle cx="450" cy="405" r="24"/>
    <circle cx="725" cy="405" r="24"/>
  </g>
</svg>
