<svg xmlns="http://www.w3.org/2000/svg" viewBox="0 0 960 540" role="img" aria-labelledby="title desc">
  <title id="title">Lernpfad Telemetrie</title>
  <desc id="desc">Didaktische Skizze zu Lernpfad Telemetrie.</desc>
  <rect width="960" height="540" rx="32" fill="#f8fafc"/>
  <rect x="70" y="78" width="820" height="384" rx="28" fill="#ffffff" stroke="#334155" stroke-width="4"/>
  <circle cx="170" cy="270" r="54" fill="#e0f2fe" stroke="#0369a1" stroke-width="4"/>
  <rect x="330" y="214" width="140" height="112" rx="18" fill="#ecfeff" stroke="#0f766e" stroke-width="4"/>
  <rect x="590" y="214" width="170" height="112" rx="18" fill="#fef9c3" stroke="#a16207" stroke-width="4"/>
  <path d="M224 270h96" stroke="#334155" stroke-width="8" stroke-linecap="round"/>
  <path d="M470 270h110" stroke="#334155" stroke-width="8" stroke-linecap="round"/>
  <path d="m310 246 24 24-24 24" fill="none" stroke="#334155" stroke-width="8" stroke-linecap="round" stroke-linejoin="round"/>
  <path d="m570 246 24 24-24 24" fill="none" stroke="#334155" stroke-width="8" stroke-linecap="round" stroke-linejoin="round"/>
  <text x="170" y="276" text-anchor="middle" font-family="Arial, sans-serif" font-size="22" fill="#0f172a">Quelle</text>
  <text x="400" y="260" text-anchor="middle" font-family="Arial, sans-serif" font-size="22" fill="#0f172a">Datenweg</text>
  <text x="675" y="260" text-anchor="middle" font-family="Arial, sans-serif" font-size="22" fill="#0f172a">Auswertung</text>
  <text x="480" y="132" text-anchor="middle" font-family="Arial, sans-serif" font-size="34" font-weight="700" fill="#111827">Lernpfad Telemetrie</text>
  <text x="480" y="396" text-anchor="middle" font-family="Arial, sans-serif" font-size="24" fill="#334155">Messpunkt · Zeitbezug · Qualität · Entscheidung</text>
  <path d="M130 386 C230 344 286 432 386 386 S546 344 650 386 786 426 836 374" fill="none" stroke="#7c3aed" stroke-width="5" stroke-linecap="round"/>
</svg>
