<svg xmlns="http://www.w3.org/2000/svg" width="1200" height="360" viewBox="0 0 1200 360">
<defs><marker id="arrow" markerWidth="10" markerHeight="10" refX="8" refY="3" orient="auto"><path d="M0,0 L0,6 L9,3 z" fill="#64748b"/></marker></defs>
<rect width="1200" height="360" fill="#ffffff"/>
<text x="50" y="48" font-family="Arial, Helvetica, sans-serif" font-size="28" font-weight="bold" fill="#0f172a">Prozentrechnung</text>
<text x="50" y="80" font-family="Arial, Helvetica, sans-serif" font-size="15" fill="#475569">Überblicksschaubild – reduziert auf zentrale Stationen und Zusammenhänge.</text>
<rect x="50" y="140" rx="12" ry="12" width="230" height="84" fill="#edf7ff" stroke="#4a6fa5" stroke-width="2"/>
<text x="165.0" y="182.0" text-anchor="middle" font-family="Arial, Helvetica, sans-serif" font-size="15" fill="#1f2a37">Grundwert</text>
<line x1="280" y1="182.0" x2="320" y2="182.0" stroke="#64748b" stroke-width="3" marker-end="url(#arrow)"/>
<rect x="340" y="140" rx="12" ry="12" width="230" height="84" fill="#eefbf3" stroke="#4a6fa5" stroke-width="2"/>
<text x="455.0" y="182.0" text-anchor="middle" font-family="Arial, Helvetica, sans-serif" font-size="15" fill="#1f2a37">Prozentsatz</text>
<line x1="570" y1="182.0" x2="610" y2="182.0" stroke="#64748b" stroke-width="3" marker-end="url(#arrow)"/>
<rect x="630" y="140" rx="12" ry="12" width="230" height="84" fill="#fff7ed" stroke="#4a6fa5" stroke-width="2"/>
<text x="745.0" y="182.0" text-anchor="middle" font-family="Arial, Helvetica, sans-serif" font-size="15" fill="#1f2a37">Prozentwert</text>
<line x1="860" y1="182.0" x2="900" y2="182.0" stroke="#64748b" stroke-width="3" marker-end="url(#arrow)"/>
<rect x="920" y="140" rx="12" ry="12" width="230" height="84" fill="#f5f3ff" stroke="#4a6fa5" stroke-width="2"/>
<text x="1035.0" y="182.0" text-anchor="middle" font-family="Arial, Helvetica, sans-serif" font-size="15" fill="#1f2a37">Ergebnis</text>
<text x="50" y="310" font-family="Arial, Helvetica, sans-serif" font-size="13" fill="#64748b">Didaktische Skizze: nicht maßstäblich, sondern zur inhaltlichen Orientierung gedacht.</text>
</svg>