<svg xmlns="http://www.w3.org/2000/svg" role="img" aria-labelledby="title desc" viewBox="0 0 960 540">
<title id="title">API als Vertrag</title><desc id="desc">Didaktisches Schaubild für eine Informatik-Überblicksseite.</desc>
<style>.bg{fill:#f8fafc}.card{fill:#ffffff;stroke:#334155;stroke-width:2}.line{stroke:#334155;stroke-width:2.4;fill:none;stroke-linecap:round;stroke-linejoin:round}.txt{font-family:Arial,Helvetica,sans-serif;font-size:22px;fill:#0f172a;font-weight:700}.small{font-family:Arial,Helvetica,sans-serif;font-size:14px;fill:#334155}.label{font-family:Arial,Helvetica,sans-serif;font-size:15px;fill:#0f172a;font-weight:600}</style>
<rect class="bg" x="0" y="0" width="960" height="540" rx="24"/>
<text class="txt" x="48" y="62">API als Vertrag</text>
<rect class="card" x="10.0" y="210" width="140" height="78" rx="16"/><text class="label" text-anchor="middle" x="80.0" y="255">Anfrage</text><path class="line" d="M156.0 249 H260.7"/><path class="line" d="m249.7 239 12 10-12 10"/><rect class="card" x="276.7" y="210" width="140" height="78" rx="16"/><text class="label" text-anchor="middle" x="346.7" y="255">Prüfung</text><path class="line" d="M422.7 249 H527.3"/><path class="line" d="m516.3 239 12 10-12 10"/><rect class="card" x="543.3" y="210" width="140" height="78" rx="16"/><text class="label" text-anchor="middle" x="613.3" y="255">Antwort</text><path class="line" d="M689.3 249 H794.0"/><path class="line" d="m783.0 239 12 10-12 10"/><rect class="card" x="810.0" y="210" width="140" height="78" rx="16"/><text class="label" text-anchor="middle" x="880.0" y="255">Fehlerfall</text>
<text class="small" x="48" y="490">Das Schaubild ordnet Begriffe als Zusammenhang, nicht als isolierte Einzelfälle.</text>
</svg>
