<svg xmlns="http://www.w3.org/2000/svg" viewBox="0 0 920 540" role="img" aria-labelledby="title desc">
  <title id="title">Audit-Log und Nachvollziehbarkeit</title>
  <desc id="desc">Didaktische Skizze zu Audit-Log und Nachvollziehbarkeit: Eingabe, Verarbeitung, Entscheidung und Prüfung werden als Informatik-Ablauf gezeigt.</desc>
  <rect width="920" height="540" rx="34" fill="#eef2ff"/>
  <rect x="58" y="58" width="804" height="424" rx="30" fill="#ffffff" stroke="#4f46e5" stroke-width="5"/>
  <text x="92" y="116" font-family="Arial, sans-serif" font-size="30" font-weight="700" fill="#312e81">Audit-Log und Nachvollziehbarkeit</text>
  <text x="92" y="154" font-family="Arial, sans-serif" font-size="19" fill="#4338ca">Sicherheit und Risiko · verstehen, prüfen, begründen</text>
  <g font-family="Arial, sans-serif" text-anchor="middle">
    <rect x="90" y="218" width="150" height="96" rx="18" fill="#e0e7ff" stroke="#a5b4fc"/>
    <text x="165" y="255" font-size="21" font-weight="700" fill="#312e81">Eingabe</text>
    <text x="165" y="284" font-size="15" fill="#4338ca">Daten lesen</text>
    <rect x="300" y="218" width="150" height="96" rx="18" fill="#e0e7ff" stroke="#a5b4fc"/>
    <text x="375" y="255" font-size="21" font-weight="700" fill="#312e81">Logik</text>
    <text x="375" y="284" font-size="15" fill="#4338ca">Regeln klären</text>
    <rect x="510" y="218" width="150" height="96" rx="18" fill="#e0e7ff" stroke="#a5b4fc"/>
    <text x="585" y="255" font-size="21" font-weight="700" fill="#312e81">Zustand</text>
    <text x="585" y="284" font-size="15" fill="#4338ca">Änderung prüfen</text>
    <rect x="710" y="218" width="100" height="96" rx="18" fill="#e0e7ff" stroke="#a5b4fc"/>
    <text x="760" y="255" font-size="21" font-weight="700" fill="#312e81">Test</text>
    <text x="760" y="284" font-size="15" fill="#4338ca">Fall prüfen</text>
  </g>
  <g fill="none" stroke="#4f46e5" stroke-width="5" stroke-linecap="round" stroke-linejoin="round">
    <path d="M248 266h42"/><path d="M290 266l-14-11m14 11-14 11"/>
    <path d="M458 266h42"/><path d="M500 266l-14-11m14 11-14 11"/>
    <path d="M668 266h32"/><path d="M700 266l-14-11m14 11-14 11"/>
  </g>
  <g fill="#312e81" font-family="Arial, sans-serif" font-size="18">
    <text x="96" y="382">1. Ziel und Eingaben benennen</text>
    <text x="96" y="414">2. Datenstruktur, Regel oder Schnittstelle begründen</text>
    <text x="96" y="446">3. Randfall, Fehlerfall und Kontrolle ergänzen</text>
  </g>
</svg>