<svg xmlns="http://www.w3.org/2000/svg" width="720" height="430" viewBox="0 0 720 430" role="img" aria-labelledby="title desc">
  <title id="title">Quadratische Funktion mit Parabel, Scheitelpunkt und Nullstellen</title>
  <desc id="desc">Koordinatensystem mit nach oben geöffneter Parabel, Scheitelpunkt, Symmetrieachse und zwei Nullstellen.</desc>
  <!-- Redrawn/adapted for Schlaufuchs from legacy Schlaufuchs taxonomy material, observed CC BY-NC-SA 4.0, author marker JW where supplied; no endorsement implied. -->
  <rect width="720" height="430" rx="24" fill="#f8fafc"/>
  <g transform="translate(360 330)">
    <line x1="-270" y1="0" x2="270" y2="0" stroke="#334155" stroke-width="3"/>
    <line x1="0" y1="60" x2="0" y2="-250" stroke="#334155" stroke-width="3"/>
    <path d="M270 0l-12-7v14z" fill="#334155"/>
    <path d="M0 -250l-7 12h14z" fill="#334155"/>
    <text x="280" y="7" font-family="Arial, sans-serif" font-size="22" fill="#334155">x</text>
    <text x="-8" y="-262" font-family="Arial, sans-serif" font-size="22" fill="#334155">y</text>
    <g stroke="#cbd5e1" stroke-width="1">
      <line x1="-240" y1="60" x2="-240" y2="-230"/>
      <line x1="-160" y1="60" x2="-160" y2="-230"/>
      <line x1="-80" y1="60" x2="-80" y2="-230"/>
      <line x1="80" y1="60" x2="80" y2="-230"/>
      <line x1="160" y1="60" x2="160" y2="-230"/>
      <line x1="240" y1="60" x2="240" y2="-230"/>
      <line x1="-270" y1="-60" x2="270" y2="-60"/>
      <line x1="-270" y1="-120" x2="270" y2="-120"/>
      <line x1="-270" y1="-180" x2="270" y2="-180"/>
    </g>
    <path d="M -220 -180 C -165 -65 -115 5 -60 22 C -20 34 20 34 60 22 C 115 5 165 -65 220 -180" fill="none" stroke="#2563eb" stroke-width="5" stroke-linecap="round"/>
    <line x1="0" y1="55" x2="0" y2="-220" stroke="#64748b" stroke-width="3" stroke-dasharray="8 8"/>
    <circle cx="0" cy="30" r="8" fill="#dc2626"/>
    <text x="14" y="36" font-family="Arial, sans-serif" font-size="22" fill="#991b1b">S(d | e)</text>
    <circle cx="-86" cy="0" r="7" fill="#16a34a"/>
    <circle cx="86" cy="0" r="7" fill="#16a34a"/>
    <text x="-154" y="32" font-family="Arial, sans-serif" font-size="20" fill="#166534">Nullstelle</text>
    <text x="78" y="32" font-family="Arial, sans-serif" font-size="20" fill="#166534">Nullstelle</text>
    <text x="-250" y="-215" font-family="Arial, sans-serif" font-size="24" font-weight="700" fill="#1e293b">f(x) = a · x² + b · x + c</text>
  </g>
</svg>
