<svg xmlns="http://www.w3.org/2000/svg" viewBox="0 0 960 520" role="img" aria-labelledby="title desc">
  <title id="title">Messaufbau planen</title>
  <desc id="desc">Vereinfachtes Schaubild zur Überblicksseite Messaufbau planen.</desc>
  <defs>
    <marker id="arrow" viewBox="0 0 10 10" refX="8" refY="5" markerWidth="8" markerHeight="8" orient="auto-start-reverse">
      <path d="M 0 0 L 10 5 L 0 10 z" fill="#334155"/>
    </marker>
    <filter id="shadow" x="-10%" y="-10%" width="120%" height="130%">
      <feDropShadow dx="0" dy="4" stdDeviation="5" flood-color="#0f172a" flood-opacity="0.18"/>
    </filter>
  </defs>
  <rect width="960" height="520" rx="32" fill="#f8fafc"/>
  <rect x="28" y="28" width="904" height="464" rx="28" fill="#ffffff" stroke="#e2e8f0" stroke-width="3" filter="url(#shadow)"/>
  <text x="480" y="82" text-anchor="middle" font-size="34" font-weight="800" fill="#0f172a">Messaufbau planen</text>
  <rect x="80" y="120" width="150" height="76" rx="18" fill="#dbeafe" stroke="#1f2937" stroke-width="3"/><text x="155" y="166" text-anchor="middle" font-size="22" font-weight="700">Frage</text><rect x="280" y="290" width="150" height="76" rx="18" fill="#dcfce7" stroke="#1f2937" stroke-width="3"/><text x="355" y="336" text-anchor="middle" font-size="22" font-weight="700">Messpunkt</text><rect x="480" y="120" width="150" height="76" rx="18" fill="#fef3c7" stroke="#1f2937" stroke-width="3"/><text x="555" y="166" text-anchor="middle" font-size="22" font-weight="700">Gerät</text><rect x="680" y="290" width="150" height="76" rx="18" fill="#fae8ff" stroke="#1f2937" stroke-width="3"/><text x="755" y="336" text-anchor="middle" font-size="22" font-weight="700">Bewertung</text><path d="M230 158 C360 70 540 70 680 158" fill="none" stroke="#334155" stroke-width="4" marker-end="url(#arrow)"/><path d="M680 330 C530 440 350 440 155 330" fill="none" stroke="#334155" stroke-width="4" marker-end="url(#arrow)"/>
  <text x="480" y="480" text-anchor="middle" font-size="18" fill="#475569">Vereinfachte Orientierung – Details hängen vom konkreten Kontext ab.</text>
</svg>
