<svg xmlns="http://www.w3.org/2000/svg" viewBox="0 0 920 540" role="img" aria-labelledby="title desc">
  <title id="title">XSS-Risiko und Output</title>
  <desc id="desc">Didaktische Web-Skizze zu XSS-Risiko und Output: Nutzeraktion, UI-Zustand, API-Grenze und Kontrolle werden getrennt dargestellt.</desc>
  <rect width="920" height="540" rx="34" fill="#f5f3ff"/>
  <rect x="54" y="54" width="812" height="432" rx="30" fill="#ffffff" stroke="#7c3aed" stroke-width="5"/>
  <text x="92" y="112" font-family="Arial, sans-serif" font-size="30" font-weight="700" fill="#4c1d95">XSS-Risiko und Output</text>
  <text x="92" y="150" font-family="Arial, sans-serif" font-size="19" fill="#6d28d9">Auth, Sicherheit und Grenzen · planen, prüfen, betreiben</text>
  <g font-family="Arial, sans-serif" text-anchor="middle">
    <rect x="96" y="214" width="155" height="106" rx="20" fill="#ede9fe" stroke="#c4b5fd"/>
    <text x="173" y="254" font-size="21" font-weight="700" fill="#4c1d95">Nutzer</text>
    <text x="173" y="284" font-size="15" fill="#5b21b6">Absicht</text>
    <rect x="292" y="214" width="155" height="106" rx="20" fill="#ede9fe" stroke="#c4b5fd"/>
    <text x="369" y="254" font-size="21" font-weight="700" fill="#4c1d95">UI</text>
    <text x="369" y="284" font-size="15" fill="#5b21b6">Zustand</text>
    <rect x="488" y="214" width="155" height="106" rx="20" fill="#ede9fe" stroke="#c4b5fd"/>
    <text x="565" y="254" font-size="21" font-weight="700" fill="#4c1d95">API</text>
    <text x="565" y="284" font-size="15" fill="#5b21b6">Vertrag</text>
    <rect x="684" y="214" width="140" height="106" rx="20" fill="#ede9fe" stroke="#c4b5fd"/>
    <text x="754" y="254" font-size="21" font-weight="700" fill="#4c1d95">Check</text>
    <text x="754" y="284" font-size="15" fill="#5b21b6">Abnahme</text>
  </g>
  <g fill="none" stroke="#7c3aed" stroke-width="5" stroke-linecap="round" stroke-linejoin="round">
    <path d="M260 267h24"/><path d="M284 267l-13-10m13 10-13 10"/>
    <path d="M456 267h24"/><path d="M480 267l-13-10m13 10-13 10"/>
    <path d="M652 267h24"/><path d="M676 267l-13-10m13 10-13 10"/>
  </g>
  <g fill="#4c1d95" font-family="Arial, sans-serif" font-size="18">
    <text x="100" y="382">1. Nutzerabsicht und Zustand benennen</text>
    <text x="100" y="414">2. API-, Sicherheits- oder UX-Grenze sichtbar machen</text>
    <text x="100" y="446">3. Fehlerfall, Test und Betriebsnotiz ergänzen</text>
  </g>
</svg>