<svg xmlns="http://www.w3.org/2000/svg" viewBox="0 0 760 380" role="img" aria-labelledby="title desc">
  <title id="title">Secrets und ENV-Dateien</title>
  <desc id="desc">Didaktische Skizze zu Secrets und ENV-Dateien: Browser, API, Daten, Betrieb und Kontrollpunkte.</desc>
  <rect width="760" height="380" rx="30" fill="#f8fafc"/>
  <rect x="42" y="70" width="140" height="108" rx="18" fill="#ffffff" stroke="#334155" stroke-width="4"/>
  <rect x="226" y="70" width="140" height="108" rx="18" fill="#ffffff" stroke="#334155" stroke-width="4"/>
  <rect x="410" y="70" width="140" height="108" rx="18" fill="#ffffff" stroke="#334155" stroke-width="4"/>
  <rect x="594" y="70" width="124" height="108" rx="18" fill="#ffffff" stroke="#334155" stroke-width="4"/>
  <text x="112" y="124" text-anchor="middle" font-family="Arial, sans-serif" font-size="20" fill="#0f172a">Browser</text>
  <text x="296" y="124" text-anchor="middle" font-family="Arial, sans-serif" font-size="20" fill="#0f172a">API</text>
  <text x="480" y="124" text-anchor="middle" font-family="Arial, sans-serif" font-size="20" fill="#0f172a">Daten</text>
  <text x="656" y="124" text-anchor="middle" font-family="Arial, sans-serif" font-size="20" fill="#0f172a">Betrieb</text>
  <path d="M184 124 H220" stroke="#2563eb" stroke-width="6" stroke-linecap="round"/>
  <path d="M368 124 H404" stroke="#2563eb" stroke-width="6" stroke-linecap="round"/>
  <path d="M552 124 H588" stroke="#2563eb" stroke-width="6" stroke-linecap="round"/>
  <circle cx="112" cy="152" r="9" fill="#22c55e"/>
  <circle cx="296" cy="152" r="9" fill="#f59e0b"/>
  <circle cx="480" cy="152" r="9" fill="#ef4444"/>
  <circle cx="656" cy="152" r="9" fill="#8b5cf6"/>
  <rect x="72" y="236" width="616" height="68" rx="22" fill="#e0f2fe" stroke="#0284c7" stroke-width="3"/>
  <text x="380" y="264" text-anchor="middle" font-family="Arial, sans-serif" font-size="20" fill="#0f172a">Secrets und ENV-Dateien</text>
  <text x="380" y="292" text-anchor="middle" font-family="Arial, sans-serif" font-size="17" fill="#334155">Prüfen: Verantwortung · Datenfluss · Fehlerfall · Rückweg</text>
</svg>
