<svg xmlns="http://www.w3.org/2000/svg" viewBox="0 0 960 540" role="img" aria-labelledby="title desc">
  <title id="title">Dokumentation im Projekt</title>
  <desc id="desc">Ruhige didaktische Skizze zu Dokumentation im Projekt: Einstieg, Prüfung und Ergebnis werden als Webprojekt-Ablauf dargestellt.</desc>
  <rect width="960" height="540" rx="36" fill="#f8fafc"/>
  <rect x="72" y="72" width="816" height="396" rx="28" fill="#ffffff" stroke="#cbd5e1" stroke-width="4"/>
  <circle cx="156" cy="156" r="42" fill="hsl(134, 72%, 88%)" stroke="#334155" stroke-width="4"/>
  <path d="M142 156h28M156 142v28" stroke="#334155" stroke-width="5" stroke-linecap="round"/>
  <rect x="246" y="124" width="178" height="72" rx="18" fill="#eef2ff" stroke="#475569" stroke-width="4"/>
  <rect x="478" y="124" width="178" height="72" rx="18" fill="#ecfeff" stroke="#475569" stroke-width="4"/>
  <rect x="710" y="124" width="96" height="72" rx="18" fill="#f0fdf4" stroke="#475569" stroke-width="4"/>
  <path d="M424 160h54M656 160h54" stroke="#475569" stroke-width="5" stroke-linecap="round"/>
  <path d="m464 148 14 12-14 12M696 148l14 12-14 12" fill="none" stroke="#475569" stroke-width="5" stroke-linecap="round" stroke-linejoin="round"/>
  <rect x="152" y="262" width="656" height="118" rx="22" fill="#f8fafc" stroke="#cbd5e1" stroke-width="4"/>
  <path d="M205 322h120M205 350h84M384 322h164M384 350h110M606 322h132M606 350h86" stroke="#64748b" stroke-width="6" stroke-linecap="round"/>
  <text x="246" y="432" font-family="Arial, sans-serif" font-size="30" font-weight="700" fill="#0f172a">Dokumentation im Projekt</text>
</svg>
